<svg version="1" xmlns="http://www.w3.org/2000/svg" width="682.667" height="682.667" viewBox="0 0 512.000000 512.000000"><path d="M234.5.6c-1.6.2-7 .9-12 1.5-36.9 4.5-75.8 19-107.9 40.3C99.3 52.6 88.5 61.5 75 75c-40.2 40.2-64.4 89-73.2 147.5-1.8 12.1-1.8 54.9 0 67 6.1 40.5 19.4 76 40.6 107.9C52.6 412.7 61.5 423.5 75 437c40.2 40.2 89 64.4 147.5 73.2 12.1 1.8 54.9 1.8 67 0 40.5-6.1 76-19.4 107.9-40.6 15.3-10.2 26.1-19.1 39.6-32.6 40.2-40.2 64.4-89 73.2-147.5 1.8-12.1 1.8-54.9 0-67-6.1-40.5-19.4-76-40.6-107.9C459.4 99.3 450.5 88.5 437 75c-39.4-39.4-87-63.4-143.7-72.6C284 .9 241.7-.4 234.5.6zm114.8 147.5l78.7 53.4-89.5.3-89.5.2v17h139v51H249v17h139v52H249v17h139v37H149V219l-32.4-.2-32.4-.3 91.6-62.2c50.5-34.3 92.4-62.1 93.3-61.9.8.2 36.9 24.3 80.2 53.7z"/><path d="M203.4 189.4c-5 2.2-10.2 7.4-12 12.1-2.5 6.8-1.6 16.3 2.2 21.7 5.9 8.6 18.6 12.2 28 7.9 7.4-3.4 13.4-12.7 13.4-20.7 0-8.3-5.8-17-13.5-20.5-4.7-2.2-13.7-2.4-18.1-.5zM205.8 257c-4.8 1.4-9.4 4.9-12.4 9.1-3.9 5.7-4.7 16.5-1.6 22.5 2.4 4.6 6.3 8.5 11.1 10.9 5.4 2.7 16.4 1.8 21.9-2 8.8-5.9 12.4-17.7 8.3-27.1-2.9-6.4-5.5-9.2-11.6-12-5.1-2.4-10.7-2.9-15.7-1.4zM202.5 326.7c-4.4 2.3-8.4 6.3-10.7 10.7-3 5.8-2.3 16.8 1.4 22.4 5.9 8.8 17.9 12.4 27.6 8.2 17.3-7.4 19-30.8 2.9-40-4.3-2.5-6.3-3-11.7-3-3.9.1-7.7.7-9.5 1.7z"/></svg>